<?xml version="1.0" encoding="utf-8"?>
<svg viewBox="0 0 192.441 40.969" xmlns="http://www.w3.org/2000/svg">
  <rect x="6.055" y="0.731" width="181.496" height="39.329" rx="7" ry="7" style="fill: rgb(216, 216, 216); stroke-opacity: 0.4; fill-opacity: 0.4; stroke-width: 0.896;"/>
  <g style="" transform="matrix(0.859155, 0, 0, 0.859155, 7.657094, 3.831406)">
    <g id="svgGroup" stroke-linecap="round" fill-rule="evenodd" font-size="9pt" stroke="#11a3a5" stroke-width="0.25mm" fill="#11a3a5" style="stroke: rgb(17, 163, 165); stroke-width: 0.25mm; fill: rgb(17, 163, 165);" transform="matrix(0.659897, 0, 0, 0.659897, 11.765409, 5.903046)">
      <path d="M 195.215 20.802 L 208.203 23.341 A 12.698 12.698 0 0 1 209.899 23.773 Q 210.738 24.054 211.388 24.436 A 4.921 4.921 0 0 1 212.647 25.465 A 5.323 5.323 0 0 1 213.795 27.826 A 7.733 7.733 0 0 1 213.965 29.493 A 6.745 6.745 0 0 1 213.588 31.807 Q 212.909 33.677 211.011 34.791 Q 208.116 36.49 202.712 36.524 A 35.245 35.245 0 0 1 202.49 36.525 A 23.539 23.539 0 0 1 197.936 36.1 A 19.416 19.416 0 0 1 194.922 35.255 Q 191.504 33.985 189.526 31.739 A 8.204 8.204 0 0 1 188.107 29.526 A 7.01 7.01 0 0 1 187.549 26.759 A 8.331 8.331 0 0 0 187.527 26.127 Q 187.448 25.093 187.087 24.71 A 0.85 0.85 0 0 0 187.085 24.708 A 1.521 1.521 0 0 0 186.298 24.273 A 2.293 2.293 0 0 0 185.791 24.22 A 1.428 1.428 0 0 0 184.902 24.534 A 2.17 2.17 0 0 0 184.57 24.855 A 1.998 1.998 0 0 0 184.213 25.503 Q 184.033 26.025 184.033 26.759 L 183.936 37.794 A 1.92 1.92 0 0 0 184.064 38.508 A 1.761 1.761 0 0 0 184.522 39.161 Q 185.108 39.698 185.889 39.698 A 1.694 1.694 0 0 0 187.118 39.202 A 2.017 2.017 0 0 0 187.134 39.186 A 1.609 1.609 0 0 0 187.518 38.545 Q 187.647 38.16 187.647 37.648 L 187.647 34.718 Q 190.332 37.794 194.263 39.161 A 24.918 24.918 0 0 0 200.798 40.462 A 29.437 29.437 0 0 0 202.783 40.528 Q 208.038 40.528 211.752 39.089 A 14.819 14.819 0 0 0 214.38 37.77 A 8.855 8.855 0 0 0 218.568 31.381 A 12.219 12.219 0 0 0 218.701 29.542 Q 218.701 26.253 217.605 24.071 A 7.191 7.191 0 0 0 216.138 22.071 A 11.251 11.251 0 0 0 213.201 20.088 Q 211.906 19.469 210.329 19.046 A 22.297 22.297 0 0 0 208.838 18.702 L 196.192 16.163 A 19.033 19.033 0 0 1 194.453 15.69 Q 192.731 15.126 191.753 14.346 A 4.41 4.41 0 0 1 191.358 13.99 A 4.701 4.701 0 0 1 190.056 11.298 A 6.546 6.546 0 0 1 189.99 10.353 Q 189.99 4.303 199.391 4.019 A 31.444 31.444 0 0 1 200.342 4.005 A 31.137 31.137 0 0 1 204.323 4.245 Q 207.133 4.608 209.351 5.519 A 10.978 10.978 0 0 1 211.783 6.874 A 7.875 7.875 0 0 1 214.356 10.109 Q 214.392 11.812 214.589 12.762 A 4.048 4.048 0 0 0 214.746 13.331 Q 215.075 14.224 216.218 14.258 A 3.084 3.084 0 0 0 216.309 14.259 Q 217.285 14.259 217.725 13.819 A 1.559 1.559 0 0 0 218.039 13.352 Q 218.206 12.981 218.262 12.452 L 218.359 2.638 A 3.465 3.465 0 0 0 218.291 1.925 Q 218.159 1.297 217.774 0.88 A 1.998 1.998 0 0 0 217.154 0.417 A 1.853 1.853 0 0 0 216.358 0.245 A 1.926 1.926 0 0 0 215.054 0.75 A 2.619 2.619 0 0 0 214.893 0.904 A 2.065 2.065 0 0 0 214.351 1.984 Q 214.303 2.24 214.303 2.529 A 3.639 3.639 0 0 0 214.307 2.687 L 214.307 4.493 Q 212.971 2.757 209.567 1.529 A 23.843 23.843 0 0 0 208.887 1.295 A 26.213 26.213 0 0 0 200.684 0.001 Q 194.886 0.001 190.72 1.908 A 16.844 16.844 0 0 0 189.478 2.54 A 8.425 8.425 0 0 0 185.177 8.623 A 13.303 13.303 0 0 0 184.961 11.085 Q 184.961 15.187 187.647 17.53 Q 190.332 19.874 195.215 20.802 Z M 38.916 9.669 L 38.916 2.931 A 3.481 3.481 0 0 0 38.811 2.048 A 2.33 2.33 0 0 0 37.94 0.734 Q 36.963 0.001 34.619 0.001 A 33.763 33.763 0 0 0 27.617 0.677 Q 19.479 2.404 15.479 8.546 L 15.283 3.468 A 8.852 8.852 0 0 0 15.231 2.753 Q 15.146 2.036 14.944 1.573 A 2.197 2.197 0 0 0 14.868 1.417 Q 14.542 0.808 13.653 0.742 A 3.032 3.032 0 0 0 13.428 0.734 A 3.961 3.961 0 0 0 12.973 0.762 Q 12.662 0.798 12.305 0.88 L 3.955 2.54 A 1.935 1.935 0 0 0 3.353 2.773 A 1.691 1.691 0 0 0 2.881 3.199 Q 2.49 3.712 2.49 4.396 Q 2.49 5.177 3.003 5.763 A 1.672 1.672 0 0 0 3.98 6.307 A 2.477 2.477 0 0 0 4.443 6.349 Q 4.768 6.349 4.958 6.315 A 1.062 1.062 0 0 0 5.029 6.3 L 10.986 5.079 L 10.986 35.694 L 2.051 35.694 Q 1.074 35.694 0.537 36.28 Q 0 36.866 0 37.648 A 2.011 2.011 0 0 0 0.586 39.088 Q 1.172 39.698 2.246 39.698 L 32.031 39.698 A 2.272 2.272 0 0 0 32.672 39.613 A 1.721 1.721 0 0 0 33.496 39.088 Q 34.033 38.478 34.033 37.696 A 2.234 2.234 0 0 0 33.897 36.905 A 2.023 2.023 0 0 0 33.521 36.28 A 1.672 1.672 0 0 0 32.544 35.736 A 2.477 2.477 0 0 0 32.08 35.694 L 15.674 35.694 L 15.674 14.015 A 13.921 13.921 0 0 1 22.002 6.919 A 17.872 17.872 0 0 1 22.656 6.568 A 23.342 23.342 0 0 1 30.098 4.281 A 29.966 29.966 0 0 1 34.229 4.005 L 34.229 9.864 Q 34.229 11.085 34.912 11.744 A 2.245 2.245 0 0 0 36.524 12.403 Q 37.5 12.403 38.208 11.695 A 2.289 2.289 0 0 0 38.785 10.689 Q 38.89 10.328 38.911 9.895 A 4.622 4.622 0 0 0 38.916 9.669 Z M 160.01 9.669 L 160.01 2.931 A 3.481 3.481 0 0 0 159.905 2.048 A 2.33 2.33 0 0 0 159.033 0.734 Q 158.057 0.001 155.713 0.001 A 33.763 33.763 0 0 0 148.711 0.677 Q 140.573 2.404 136.572 8.546 L 136.377 3.468 A 8.852 8.852 0 0 0 136.324 2.753 Q 136.24 2.036 136.038 1.573 A 2.197 2.197 0 0 0 135.962 1.417 Q 135.636 0.808 134.747 0.742 A 3.032 3.032 0 0 0 134.522 0.734 A 3.961 3.961 0 0 0 134.066 0.762 Q 133.756 0.798 133.399 0.88 L 125.049 2.54 A 1.935 1.935 0 0 0 124.447 2.773 A 1.691 1.691 0 0 0 123.975 3.199 Q 123.584 3.712 123.584 4.396 Q 123.584 5.177 124.097 5.763 A 1.672 1.672 0 0 0 125.074 6.307 A 2.477 2.477 0 0 0 125.537 6.349 Q 125.862 6.349 126.052 6.315 A 1.062 1.062 0 0 0 126.123 6.3 L 132.08 5.079 L 132.08 35.694 L 123.145 35.694 Q 122.168 35.694 121.631 36.28 Q 121.094 36.866 121.094 37.648 A 2.011 2.011 0 0 0 121.68 39.088 Q 122.266 39.698 123.34 39.698 L 153.125 39.698 A 2.272 2.272 0 0 0 153.766 39.613 A 1.721 1.721 0 0 0 154.59 39.088 Q 155.127 38.478 155.127 37.696 A 2.234 2.234 0 0 0 154.991 36.905 A 2.023 2.023 0 0 0 154.614 36.28 A 1.672 1.672 0 0 0 153.638 35.736 A 2.477 2.477 0 0 0 153.174 35.694 L 136.768 35.694 L 136.768 14.015 A 13.921 13.921 0 0 1 143.096 6.919 A 17.872 17.872 0 0 1 143.75 6.568 A 23.342 23.342 0 0 1 151.192 4.281 A 29.966 29.966 0 0 1 155.322 4.005 L 155.322 9.864 Q 155.322 11.085 156.006 11.744 A 2.245 2.245 0 0 0 157.617 12.403 Q 158.594 12.403 159.302 11.695 A 2.289 2.289 0 0 0 159.879 10.689 Q 159.983 10.328 160.004 9.895 A 4.622 4.622 0 0 0 160.01 9.669 Z M 246.533 20.802 L 277.246 20.558 A 3.946 3.946 0 0 0 278.522 20.36 A 3.288 3.288 0 0 0 279.981 19.361 A 4.192 4.192 0 0 0 280.923 17.314 A 5.813 5.813 0 0 0 281.006 16.31 A 20.035 20.035 0 0 0 280.587 12.108 A 14.63 14.63 0 0 0 278.735 7.423 Q 276.465 3.761 272.485 1.881 A 19.512 19.512 0 0 0 266.642 0.204 A 24.782 24.782 0 0 0 263.428 0.001 Q 257.471 0.001 252.564 2.394 A 19.065 19.065 0 0 0 244.751 9.278 A 18.058 18.058 0 0 0 242.027 16.896 A 23.022 23.022 0 0 0 241.846 19.825 A 24.674 24.674 0 0 0 242.447 25.398 A 18.98 18.98 0 0 0 244.629 30.885 Q 247.412 35.548 252.417 38.038 A 23.556 23.556 0 0 0 259.601 40.227 A 30.583 30.583 0 0 0 263.965 40.528 A 24.564 24.564 0 0 0 268.792 40.026 A 32.954 32.954 0 0 0 272.876 38.917 Q 276.707 37.621 279.099 35.597 A 12.361 12.361 0 0 0 280.176 34.571 Q 281.055 33.595 281.055 32.521 A 2.402 2.402 0 0 0 280.894 31.632 A 2.229 2.229 0 0 0 280.518 31.007 A 1.74 1.74 0 0 0 279.244 30.376 A 2.323 2.323 0 0 0 279.102 30.372 Q 278.125 30.372 277.1 31.202 Q 274.317 33.839 270.776 35.182 A 20.158 20.158 0 0 1 263.574 36.525 A 23.028 23.028 0 0 1 258.34 35.962 A 15.95 15.95 0 0 1 251.416 32.521 A 13.429 13.429 0 0 1 247.276 25.868 Q 246.662 23.718 246.547 21.147 A 26.012 26.012 0 0 1 246.533 20.802 Z M 276.856 16.993 L 246.68 17.189 A 16.723 16.723 0 0 1 248.051 12.411 A 13.412 13.412 0 0 1 251.978 7.472 Q 256.164 4.188 262.781 4.015 A 28.454 28.454 0 0 1 263.526 4.005 A 23.513 23.513 0 0 1 267.026 4.246 Q 271.814 4.969 273.828 7.862 A 16.872 16.872 0 0 1 276.567 14.599 A 21.216 21.216 0 0 1 276.856 16.993 Z M 68.359 19.288 L 93.115 19.288 A 6.238 6.238 0 0 0 93.779 19.256 Q 94.449 19.184 94.836 18.952 A 1.204 1.204 0 0 0 95.093 18.751 Q 95.6 18.22 95.606 17.308 A 3.329 3.329 0 0 0 95.606 17.286 Q 95.606 16.415 95.153 15.888 A 1.708 1.708 0 0 0 95.093 15.821 A 1.349 1.349 0 0 0 94.641 15.521 Q 94.211 15.337 93.528 15.296 A 6.898 6.898 0 0 0 93.115 15.284 L 68.359 15.284 Q 67.197 15.284 66.624 15.601 A 1.209 1.209 0 0 0 66.333 15.821 Q 65.826 16.352 65.82 17.265 A 3.329 3.329 0 0 0 65.82 17.286 A 2.466 2.466 0 0 0 65.905 17.948 A 1.886 1.886 0 0 0 66.333 18.727 A 1.336 1.336 0 0 0 66.791 19.041 Q 67.228 19.233 67.932 19.276 A 7.024 7.024 0 0 0 68.359 19.288 Z" vector-effect="non-scaling-stroke"/>
    </g>
  </g>
</svg>